<?xml version="1.0" encoding="UTF-8" standalone="no"?>
<svg
   id="Livello_1"
   data-name="Livello 1"
   viewBox="0 0 1171.3733 1164.0673"
   version="1.1"
   sodipodi:docname="favicon.svg"
   width="1171.3733"
   height="1164.0673"
   inkscape:version="1.3 (0e150ed6c4, 2023-07-21)"
   xmlns:inkscape="http://www.inkscape.org/namespaces/inkscape"
   xmlns:sodipodi="http://sodipodi.sourceforge.net/DTD/sodipodi-0.dtd"
   xmlns="http://www.w3.org/2000/svg"
   xmlns:svg="http://www.w3.org/2000/svg">
  <sodipodi:namedview
     id="namedview5"
     pagecolor="#ffffff"
     bordercolor="#000000"
     borderopacity="0.25"
     inkscape:showpageshadow="2"
     inkscape:pageopacity="0.0"
     inkscape:pagecheckerboard="0"
     inkscape:deskcolor="#d1d1d1"
     inkscape:zoom="0.28186062"
     inkscape:cx="-457.67302"
     inkscape:cy="1204.496"
     inkscape:window-width="2560"
     inkscape:window-height="1057"
     inkscape:window-x="-8"
     inkscape:window-y="-8"
     inkscape:window-maximized="1"
     inkscape:current-layer="Livello_1" />
  <defs
     id="defs1">
    <style
       id="style1">&#10;      .cls-1 {&#10;        fill: #fff;&#10;      }&#10;&#10;      .cls-2, .cls-3 {&#10;        fill: none;&#10;      }&#10;&#10;      .cls-3 {&#10;        stroke: #fff;&#10;        stroke-miterlimit: 10;&#10;        stroke-width: 40px;&#10;      }&#10;    </style>
  </defs>
  <circle
     class="cls-3"
     cx="585.36584"
     cy="580.76654"
     r="547.52002"
     id="circle5" />
  <rect
     class="cls-2"
     x="966.78577"
     y="1021.7665"
     width="26"
     height="10"
     id="rect5" />
  <g
     id="g5"
     transform="translate(-1334.6341,-499.23345)">
    <path
       class="cls-1"
       d="m 1558.41,972.91 h 34.62 v 66.44 c -8.89,6.71 -19.21,11.85 -30.99,15.44 -11.78,3.59 -23.52,5.38 -35.22,5.38 -12.94,0 -24.83,-2.07 -35.67,-6.21 -10.84,-4.14 -20.27,-10.01 -28.31,-17.65 -8.03,-7.64 -14.27,-16.61 -18.72,-26.9 -4.44,-10.29 -6.68,-21.6 -6.68,-33.92 0,-12.32 2.23,-23.63 6.68,-33.92 4.44,-10.29 10.71,-19.26 18.82,-26.9 8.11,-7.64 17.62,-13.54 28.54,-17.67 10.92,-4.13 22.93,-6.19 36.03,-6.19 14.5,0 27.57,2.42 39.19,7.25 11.62,4.83 21.4,11.85 29.35,21.05 l -24.33,22.46 c -5.93,-6.24 -12.4,-10.89 -19.42,-13.93 -7.02,-3.04 -14.66,-4.55 -22.93,-4.55 -8.27,0 -15.21,1.25 -21.76,3.74 -6.55,2.5 -12.2,6.08 -16.95,10.76 -4.76,4.68 -8.42,10.22 -11,16.61 -2.57,6.39 -3.87,13.49 -3.87,21.29 0,7.8 1.29,14.66 3.87,21.05 2.57,6.39 6.24,11.96 11,16.72 4.76,4.76 10.37,8.39 16.84,10.89 6.47,2.5 13.6,3.74 21.4,3.74 7.8,0 14.79,-1.22 21.88,-3.63 2.56,-0.86 5.08,-1.95 7.6,-3.28 v -48.07 z"
       id="path1" />
    <path
       class="cls-1"
       d="m 1802.22,1099.84 h -41.13 l -15.03,36.29 h -78.51 l -15.1,-36.29 h -40.16 l 75.49,169.37 h 38.71 z m -68.49,66.06 -26.86,64.83 -26.95,-64.83 z"
       id="path2" />
    <path
       class="cls-1"
       d="m 1929.46,1005.87 c 0.11,-0.05 0.23,-0.1 0.34,-0.15 10.97,-4.84 19.44,-11.82 25.41,-20.94 5.97,-9.11 8.95,-19.95 8.95,-32.54 0,-12.59 -2.98,-23.71 -8.95,-32.91 -5.97,-9.19 -14.44,-16.26 -25.41,-21.18 -10.97,-4.92 -24.03,-7.37 -39.2,-7.37 h -73.31 v 169.37 h 39.2 v -47.18 h 34.12 c 0.61,0 1.23,0 1.84,-0.02 l 32.52,47.2 h 42.34 l -37.84,-54.3 z m -72.98,-83.13 h 31.94 c 12.1,0 21.13,2.58 27.1,7.74 5.97,5.16 8.95,12.42 8.95,21.78 0,9.36 -2.98,16.4 -8.95,21.65 -5.97,5.24 -15,7.87 -27.1,7.87 h -31.94 z"
       id="path3" />
    <polygon
       class="cls-1"
       points="2077.17,922.74 1986.17,922.74 1986.17,890.8 2128.69,890.8 2128.69,916.2 2035.97,1028.23 2132.32,1028.23 2132.32,1060.17 1984.24,1060.17 1984.24,1034.76 "
       id="polygon3" />
    <path
       class="cls-1"
       d="M 2157.48,1060.16 V 890.79 h 39.2 v 169.37 z"
       id="path4" />
    <path
       class="cls-1"
       d="m 2402.54,1099.84 h -41.13 l -15.03,36.29 h -78.51 l -15.1,-36.29 h -40.16 l 75.49,169.37 h 38.71 z m -68.49,66.06 -26.86,64.83 -26.95,-64.83 z"
       id="path5" />
  </g>
  <line
     class="cls-3"
     x1="37.845833"
     y1="580.76654"
     x2="1132.8859"
     y2="580.76654"
     id="line5" />
  <path
     style="fill:#c83737;stroke-width:1.25436"
     d="m 58.954754,555.88095 c 0,-8.0544 3.7552,-42.9813 6.2657,-58.27682 18.5054,-112.74722 70.609496,-213.48123 151.347996,-292.60466 40.55,-39.73896 81.4427,-68.94757 132.1423,-94.386 36.9973,-18.563289 66.9539,-29.939859 104.7387,-39.776419 130.6895,-34.02251 270.6395,-15.98699 388.8502,50.111549 101.5159,56.76351 181.72315,146.1102 227.77955,253.73463 22.5016,52.5815 37.7461,116.19989 40.8021,170.27512 l 0.854,15.1113 H 987.36595 862.99655 V 475.4007 390.73171 h -20.0697 -20.0697 v 84.66899 84.66895 h -12.5436 -12.5435 v -15.6794 -15.6794 h -47.6397 -47.6397 l 46.4265,-56.06856 46.4264,-56.06852 -0.3547,-12.60743 -0.3547,-12.60746 -71.8119,-0.32386 -71.8118,-0.32386 v 16.92823 16.92823 l 44.5646,0.32943 44.5647,0.32943 -45.7974,55.19164 -45.7973,55.19163 -0.022,12.23 -0.022,12.2299 -7.8397,-0.025 -7.8398,-0.025 -18.4971,-26.6047 -18.4972,-26.6048 4.6993,-2.3743 c 12.8863,-6.51072 23.4133,-19.60257 27.296,-33.94656 2.9514,-10.90312 2.1042,-30.94684 -1.7274,-40.87177 -5.4283,-14.06104 -17.5375,-25.98382 -32.4671,-31.96734 -14.5079,-5.81449 -25.7868,-6.91767 -70.7269,-6.91767 h -41.2294 v 84.66899 84.66895 l -133.9024,-0.093 -133.9025,-0.093 10.0349,-2.7657 c 10.6256,-2.9286 24.6832,-9.0473 30.8116,-13.4111 l 3.6832,-2.6226 v -33.7822 -33.78219 h -17.5339 -17.5339 l -0.3407,24.14635 -0.3407,24.14634 -8.1533,2.8437 c -6.9173,2.4127 -10.2449,2.7898 -21.9512,2.4874 -12.3873,-0.32 -14.6315,-0.75 -21.9512,-4.2067 -20.4524,-9.6583 -31.4657,-31.16817 -28.0236,-54.73229 1.7728,-12.13669 5.7711,-20.20877 14.1702,-28.60785 10.4809,-10.48091 21.6708,-14.92027 37.6861,-14.95126 13.9236,-0.0269 26.8538,4.67138 36.2713,13.17951 2.6396,2.38476 5.5776,4.30783 6.5288,4.27351 0.9513,-0.0343 7.0919,-5.15131 13.6459,-11.37108 l 11.9164,-11.30866 -5.6446,-5.10405 c -19.7904,-17.89518 -47.197,-26.02341 -76.2021,-22.59995 -23.5959,2.78502 -39.3485,10.21112 -54.9058,25.88381 -16.6351,16.75839 -23.4177,34.11861 -23.3068,59.6542 0.063,14.63562 2.07,24.17251 7.5276,35.77921 10.2522,21.8032 29.3121,37.8065 53.1473,44.6239 7.7989,2.2307 7.6904,2.2359 -48.3159,2.3251 l -56.132396,0.089 z"
     id="path6" />
  <path
     style="fill:#8a5033;fill-opacity:1;stroke-width:1.25436"
     d="m 58.980454,555.36585 c 0.039,-7.2138 3.3659,-39.5527 5.543,-53.8884 18.4196,-121.28702 80.393496,-234.70335 172.549696,-315.77756 62.2921,-54.80128 136.179,-94.026689 216.3763,-114.870759 146.3149,-38.02868 302.6117,-10.90709 427.8798,74.248369 73.4511,49.93103 135.27515,120.40488 174.90455,199.37553 30.626,61.02948 51.2192,136.6414 54.7098,200.87802 l 0.8009,14.7386 H 987.37045 862.99655 V 475.4007 390.73171 h -20.0697 -20.0697 v 84.66899 84.66895 h -12.5436 -12.5435 v -15.6794 -15.6794 h -47.6502 -47.6502 l 36.5903,-44.21608 c 20.1246,-24.31881 41.0212,-49.55218 46.4369,-56.07415 l 9.8466,-11.85814 -0.3546,-12.60179 -0.3547,-12.60181 -71.8119,-0.32386 -71.8118,-0.32386 v 16.92823 16.92823 l 44.6019,0.32943 44.6018,0.32943 -45.8219,55.19164 -45.8219,55.19163 -0.034,12.23 -0.034,12.2299 -7.8397,-0.015 -7.8398,-0.015 -18.5001,-26.6184 -18.5002,-26.6183 5.8134,-2.9545 c 7.0278,-3.57162 16.404,-12.70577 20.8746,-20.33571 4.6097,-7.86737 7.1765,-18.84425 7.1765,-30.69014 0,-24.71697 -10.8765,-42.82426 -31.9566,-53.20198 -15.0601,-7.41407 -19.4415,-7.94965 -69.9598,-8.55184 l -46.0976,-0.5495 v 84.77536 84.77531 l -133.9024,-0.067 -133.9025,-0.067 10.6621,-3.1256 c 11.5503,-3.386 24.3249,-8.932 30.1844,-13.1044 l 3.6832,-2.6226 v -33.7822 -33.78219 h -17.5339 -17.5339 l -0.3407,24.14635 -0.3407,24.14634 -8.1533,2.8437 c -6.9173,2.4127 -10.2449,2.7898 -21.9512,2.4874 -12.3873,-0.32 -14.6315,-0.75 -21.9512,-4.2067 -20.4404,-9.6526 -31.4436,-31.12936 -28.0411,-54.73229 1.7481,-12.12636 6.8843,-22.28967 15.0241,-29.72904 10.5983,-9.6862 21.5606,-13.80048 36.8497,-13.83007 13.8324,-0.0268 23.955,3.56501 36.0569,12.79396 7.7559,5.91465 6.5792,6.36259 22.2707,-8.47752 l 10.0348,-9.49039 -6.2718,-5.65854 c -13.8963,-12.53756 -30.319,-19.51974 -51.8553,-22.04652 -44.2423,-5.19082 -84.2363,17.58527 -97.7269,55.65421 -4.3198,12.19008 -5.402,35.07028 -2.315,48.94563 6.5378,29.38627 28.9564,52.67017 59.0749,61.35507 7.4214,2.14 6.7447,2.1715 -48.6062,2.2596 l -56.132396,0.089 z"
     id="path7" />
  <path
     style="fill:#8a5033;fill-opacity:1;stroke-width:1.25436"
     d="m 523.06615,453.34986 v -28.9498 l 22.892,0.41321 c 19.3925,0.35004 23.5632,0.77025 27.2823,2.74876 15.4056,8.19559 20.4642,25.62002 11.7847,40.59279 -6.1422,10.59578 -17.4971,14.14483 -45.2555,14.14483 h -16.7035 z"
     id="path8" />
  <path
     style="fill:#8a5033;fill-opacity:1;stroke-width:1.25436"
     d="m 523.06615,537.49125 v -22.5784 h 17.3561 17.3561 l 14.4157,21.0105 c 7.9286,11.5557 14.8276,21.716 15.3312,22.5784 0.7226,1.2377 -5.9699,1.5679 -31.7718,1.5679 h -32.6873 z"
     id="path9" />
  <path
     style="fill:#8a5033;fill-opacity:1;stroke-width:1.25436"
     d="m 926.91075,620.06495 c -3.7626,-9.1055 -7.0292,-17.0158 -7.2592,-17.5785 -0.2299,-0.5627 23.3363,-1.023 52.3694,-1.023 29.03315,0 52.78745,0.4897 52.78745,1.0883 0,0.5986 -3.0132,8.3599 -6.6959,17.2474 l -6.6959,16.159 -38.83245,0.3311 -38.8324,0.3311 z"
     id="path10" />
  <path
     style="fill:#8a5033;fill-opacity:1;stroke-width:1.25436"
     d="m 959.80105,699.02065 c -7.0195,-16.9114 -12.7627,-31.1041 -12.7627,-31.5393 0,-0.4353 11.6318,-0.7915 25.8485,-0.7915 20.191,0 25.7054,0.3432 25.1951,1.568 -0.3594,0.8624 -5.8301,13.9861 -12.1572,29.1638 -6.327,15.1777 -11.9216,28.6648 -12.4324,29.9714 -0.6833,1.748 -4.2998,-5.7463 -13.6913,-28.3724 z"
     id="path11" />
  <path
     style="fill:#8a5033;fill-opacity:1;stroke-width:1.25436"
     d="m 558.49205,1106.9407 c -81.218,-4.1915 -162.5332,-28.0377 -234.2412,-68.693 -13.5564,-7.6858 -46.7138,-29.6187 -58.4832,-38.68535 -71.6918,-55.228 -129.7169,-129.7758 -164.6236,-211.5004 -23.115896,-54.1197 -37.624996,-114.7255 -41.595596,-173.7483 l -0.8654,-12.8641 109.475296,0.3205 109.4752,0.3205 11.1381,25.0872 c 6.1259,13.7979 23.0359,51.7578 37.5778,84.3554 l 26.4398,59.2682 h 19.7404 19.7404 l 37.7045,-84.3554 37.7044,-84.3554 204.964,-0.3173 204.9641,-0.3173 37.5953,84.3591 37.5953,84.3592 20.0123,0.2992 20.0123,0.2992 37.63075,-84.6194 37.6307,-84.6193 21.6376,-0.035 21.6376,-0.035 v 6.9346 c 0,3.814 -0.86,15.2444 -1.9111,25.4007 -23.6743,228.751 -191.32415,415.04235 -416.27485,462.56135 -42.2991,8.9354 -91.5645,12.8057 -134.6809,10.5806 z"
     id="path12" />
  <path
     style="fill:#8a5033;fill-opacity:1;stroke-width:1.25436"
     d="m 359.12775,698.25425 -12.7886,-30.9372 25.2011,-0.3401 c 13.8606,-0.1871 25.4584,-0.083 25.7729,0.2317 0.526,0.526 -20.7301,53.0727 -23.9752,59.2686 -1.2544,2.395 -2.9256,-0.9242 -14.2102,-28.223 z"
     id="path13" />
  <path
     style="fill:#8a5033;fill-opacity:1;stroke-width:1.25436"
     d="m 331.58525,631.88155 c -1.0699,-2.5871 -4.3742,-10.4896 -7.3429,-17.561 l -5.3978,-12.8571 h 53.2078 53.2078 l -1.668,4.0766 c -0.9174,2.2422 -4.1441,10.1446 -7.1705,17.561 l -5.5026,13.4843 h -38.6943 -38.6942 z"
     id="path14" />
</svg>
