<?xml version="1.0" encoding="UTF-8"?>
<svg id="Livello_1" data-name="Livello 1" xmlns="http://www.w3.org/2000/svg" viewBox="0 0 3840 2160">
  <defs>
    <style>
      .cls-1, .cls-2 {
        fill: none;
      }

      .cls-2 {
        stroke: #000;
        stroke-miterlimit: 10;
        stroke-width: 40px;
      }
    </style>
  </defs>
  <path d="M1558.91,972.91h34.62v66.44c-8.89,6.71-19.21,11.85-30.99,15.44-11.78,3.59-23.52,5.38-35.22,5.38-12.94,0-24.83-2.07-35.67-6.21-10.84-4.13-20.27-10.01-28.31-17.65-8.03-7.64-14.27-16.61-18.72-26.9-4.44-10.29-6.68-21.6-6.68-33.92s2.23-23.63,6.68-33.92c4.44-10.29,10.71-19.26,18.82-26.9,8.11-7.64,17.62-13.54,28.54-17.67,10.92-4.13,22.93-6.19,36.03-6.19,14.5,0,27.57,2.42,39.19,7.25,11.62,4.83,21.4,11.85,29.35,21.05l-24.33,22.46c-5.93-6.24-12.4-10.89-19.42-13.93s-14.66-4.55-22.93-4.55-15.21,1.25-21.76,3.74c-6.55,2.5-12.2,6.08-16.95,10.76-4.76,4.68-8.42,10.22-11,16.61-2.57,6.39-3.87,13.49-3.87,21.29s1.29,14.66,3.87,21.05c2.57,6.39,6.24,11.96,11,16.72,4.76,4.76,10.37,8.39,16.84,10.89,6.47,2.5,13.6,3.74,21.4,3.74s14.79-1.22,21.88-3.63c2.56-.86,5.08-1.95,7.6-3.28v-48.07Z"/>
  <path d="M1802.72,1099.84h-41.13l-15.03,36.29h-78.51l-15.1-36.29h-40.16l75.49,169.37h38.71l75.73-169.37ZM1734.23,1165.9l-26.86,64.83-26.95-64.83h53.81Z"/>
  <path d="M1929.96,1005.87c.11-.05.23-.1.34-.15,10.97-4.84,19.44-11.82,25.41-20.94,5.97-9.11,8.95-19.95,8.95-32.54s-2.98-23.71-8.95-32.91c-5.97-9.19-14.44-16.26-25.41-21.18-10.97-4.92-24.03-7.37-39.2-7.37h-73.31v169.37h39.2v-47.18h34.12c.61,0,1.23,0,1.84-.02l32.52,47.2h42.34l-37.84-54.3ZM1856.98,922.74h31.94c12.1,0,21.13,2.58,27.1,7.74,5.97,5.16,8.95,12.42,8.95,21.78s-2.98,16.4-8.95,21.65c-5.97,5.24-15,7.87-27.1,7.87h-31.94v-59.04Z"/>
  <polygon points="2132.82 1028.23 2132.82 1060.17 1984.74 1060.17 1984.74 1034.76 2077.67 922.74 1986.67 922.74 1986.67 890.8 2129.19 890.8 2129.19 916.2 2036.47 1028.23 2132.82 1028.23"/>
  <path d="M2157.98,1060.16v-169.37h39.2v169.37h-39.2Z"/>
  <path d="M2403.04,1099.84h-41.13l-15.03,36.29h-78.51l-15.1-36.29h-40.16l75.49,169.37h38.71l75.73-169.37ZM2334.55,1165.9l-26.86,64.83-26.95-64.83h53.81Z"/>
  <circle class="cls-2" cx="1920" cy="1080" r="547.52"/>
  <line class="cls-2" x1="1372.48" y1="1080" x2="2467.52" y2="1080"/>
  <rect class="cls-1" x="2301.42" y="1521" width="26" height="10"/>
</svg>