<?xml version="1.0" encoding="UTF-8" standalone="no"?>
<svg
   id="Livello_1"
   data-name="Livello 1"
   viewBox="0 0 1144.3547 1142.7754"
   version="1.1"
   sodipodi:docname="logo.svg"
   width="1144.3547"
   height="1142.7754"
   inkscape:export-filename="logo.png"
   inkscape:export-xdpi="96"
   inkscape:export-ydpi="96"
   inkscape:version="1.3 (0e150ed, 2023-07-21)"
   xmlns:inkscape="http://www.inkscape.org/namespaces/inkscape"
   xmlns:sodipodi="http://sodipodi.sourceforge.net/DTD/sodipodi-0.dtd"
   xmlns="http://www.w3.org/2000/svg"
   xmlns:svg="http://www.w3.org/2000/svg">
  <sodipodi:namedview
     id="namedview5"
     pagecolor="#ffffff"
     bordercolor="#000000"
     borderopacity="0.25"
     inkscape:showpageshadow="2"
     inkscape:pageopacity="0.0"
     inkscape:pagecheckerboard="0"
     inkscape:deskcolor="#d1d1d1"
     inkscape:zoom="0.17695207"
     inkscape:cx="426.6692"
     inkscape:cy="339.07486"
     inkscape:window-width="1712"
     inkscape:window-height="1069"
     inkscape:window-x="0"
     inkscape:window-y="38"
     inkscape:window-maximized="0"
     inkscape:current-layer="Livello_1" />
  <defs
     id="defs1">
    <style
       id="style1">&#10;      .cls-1 {&#10;        fill: #a05f31;&#10;      }&#10;&#10;      .cls-2, .cls-3 {&#10;        fill: none;&#10;      }&#10;&#10;      .cls-3 {&#10;        stroke: #a05f31;&#10;        stroke-miterlimit: 10;&#10;        stroke-width: 40px;&#10;      }&#10;    </style>
  </defs>
  <path
     class="cls-1"
     d="m 208.26179,464.2977 h 34.62 v 66.44 c -8.89,6.71 -19.21,11.85 -30.99,15.44 -11.78,3.59 -23.52,5.38 -35.22,5.38 -12.94,0 -24.83,-2.07 -35.67,-6.21 -10.84,-4.14 -20.27,-10.01 -28.31,-17.65 -8.03,-7.64 -14.270002,-16.61 -18.720002,-26.9 -4.44,-10.29 -6.68,-21.6 -6.68,-33.92 0,-12.32 2.23,-23.63 6.68,-33.92 4.44,-10.29 10.710002,-19.26 18.820002,-26.9 8.11,-7.64 17.62,-13.54 28.54,-17.67 10.92,-4.13 22.93,-6.19 36.03,-6.19 14.5,0 27.57,2.42 39.19,7.25 11.62,4.83 21.4,11.85 29.35,21.05 l -24.33,22.46 c -5.93,-6.24 -12.4,-10.89 -19.42,-13.93 -7.02,-3.04 -14.66,-4.55 -22.93,-4.55 -8.27,0 -15.21,1.25 -21.76,3.74 -6.55,2.5 -12.2,6.08 -16.95,10.76 -4.76,4.68 -8.42,10.22 -11,16.61 -2.57,6.39 -3.87,13.49 -3.87,21.29 0,7.8 1.29,14.66 3.87,21.05 2.57,6.39 6.24,11.96 11,16.72 4.76,4.76 10.37,8.39 16.84,10.89 6.47,2.5 13.6,3.74 21.4,3.74 7.8,0 14.79,-1.22 21.88,-3.63 2.56,-0.86 5.08,-1.95 7.6,-3.28 v -48.07 z"
     id="path1" />
  <path
     class="cls-1"
     d="m 452.07179,591.2277 h -41.13 l -15.03,36.29 h -78.51 l -15.1,-36.29 h -40.16 l 75.49,169.37 h 38.71 z m -68.49,66.06 -26.86,64.83 -26.95,-64.83 z"
     id="path2" />
  <path
     class="cls-1"
     d="m 579.31179,497.2577 c 0.11,-0.05 0.23,-0.1 0.34,-0.15 10.97,-4.84 19.44,-11.82 25.41,-20.94 5.97,-9.11 8.95,-19.95 8.95,-32.54 0,-12.59 -2.98,-23.71 -8.95,-32.91 -5.97,-9.19 -14.44,-16.26 -25.41,-21.18 -10.97,-4.92 -24.03,-7.37 -39.2,-7.37 h -73.31 v 169.37 h 39.2 v -47.18 h 34.12 c 0.61,0 1.23,0 1.84,-0.02 l 32.52,47.2 h 42.34 l -37.84,-54.3 z m -72.98,-83.13 h 31.94 c 12.1,0 21.13,2.58 27.1,7.74 5.97,5.16 8.95,12.42 8.95,21.78 0,9.36 -2.98,16.4 -8.95,21.65 -5.97,5.24 -15,7.87 -27.1,7.87 h -31.94 z"
     id="path3" />
  <polygon
     class="cls-1"
     points="2077.67,922.74 1986.67,922.74 1986.67,890.8 2129.19,890.8 2129.19,916.2 2036.47,1028.23 2132.82,1028.23 2132.82,1060.17 1984.74,1060.17 1984.74,1034.76 "
     id="polygon3"
     transform="translate(-1350.6482,-508.6123)" />
  <path
     class="cls-1"
     d="m 807.33179,551.5477 v -169.37 h 39.2 v 169.37 z"
     id="path4" />
  <path
     class="cls-1"
     d="m 1052.3918,591.2277 h -41.13 l -15.03001,36.29 h -78.51 l -15.1,-36.29 h -40.16 l 75.49,169.37 h 38.71 z m -68.49001,66.06 -26.86,64.83 -26.95,-64.83 z"
     id="path5" />
  <circle
     class="cls-3"
     cx="569.35181"
     cy="571.3877"
     r="547.52002"
     id="circle5" />
  <line
     class="cls-3"
     x1="21.831768"
     y1="571.3877"
     x2="1116.8718"
     y2="571.3877"
     id="line5" />
  <rect
     class="cls-2"
     x="950.77173"
     y="1012.3877"
     width="26"
     height="10"
     id="rect5" />
</svg>
